<?xml version="1.0" encoding="UTF-8" standalone="no"?>
<svg width="249px" height="211px" viewBox="0 0 249 211" version="1.1" xmlns="http://www.w3.org/2000/svg" xmlns:xlink="http://www.w3.org/1999/xlink" xmlns:sketch="http://www.bohemiancoding.com/sketch/ns">
    <!-- Generator: Sketch 3.4.4 (17249) - http://www.bohemiancoding.com/sketch -->
    <title>Artboard 15 Copy</title>
    <desc>Created with Sketch.</desc>
    <defs></defs>
    <g id="Page-1" stroke="none" stroke-width="1" fill="none" fill-rule="evenodd" sketch:type="MSPage">
        <g id="Artboard-15-Copy" sketch:type="MSArtboardGroup">
            <g id="Page-1" sketch:type="MSLayerGroup" transform="translate(46.000000, 43.000000)">
                <path d="M84.7293882,57.8823529 L71.6095592,57.8823529 L71.6095592,116.152311 L84.7293882,116.152311 L84.7293882,57.8823529 Z" id="Fill-1" fill="#ECC608" sketch:type="MSShapeGroup"></path>
                <g id="Group-42" sketch:type="MSShapeGroup">
                    <path d="M84.7293882,57.8823529 L71.6095592,57.8823529 L71.6095592,89.7672605 L84.7293882,89.7672605 L84.7293882,57.8823529 Z" id="Fill-2" opacity="0.049999997" fill="#000000"></path>
                    <path d="M80.1848579,82.3390941 L76.1534697,82.3390941 C58.6045882,82.3390941 44.3774961,68.1031361 44.3774961,50.5410101 L44.3774961,0.905858824 L111.960832,0.905858824 L111.960832,50.5410101 C111.960832,68.1031361 97.7337395,82.3390941 80.1848579,82.3390941" id="Fill-4" fill="#F9DC4E"></path>
                    <path d="M80.8741086,0.905652101 L44.3778059,44.838358 L44.3778059,48.5242235 C44.3778059,51.1010218 44.6752796,53.6075345 45.220648,56.0189546 L91.005773,0.905652101 L80.8741086,0.905652101 Z" id="Fill-6" fill="#FAE475"></path>
                    <path d="M111.960832,36.7771034 L74.2994237,82.1113891 C75.5698842,82.2571286 76.8599697,82.338784 78.1686474,82.338784 L78.1696803,82.338784 C79.6126342,82.338784 81.0328645,82.2385235 82.4283053,82.0617756 L111.960832,46.5127084 L111.960832,36.7771034 Z" id="Fill-8" fill="#FAE475"></path>
                    <path d="M60.390773,77.2792462 L111.961141,15.2014563 L111.961141,0.905548739 L103.574036,0.905548739 L49.3480954,66.180305 C52.1110888,70.6878933 55.9007796,74.493658 60.390773,77.2792462" id="Fill-10" fill="#FAE475"></path>
                    <path d="M110.164834,121.966387 L105.592209,106.58105 C105.209005,105.303504 104.0439,104.429067 102.721795,104.429067 L53.6159132,104.429067 C52.2948408,104.429067 51.1287026,105.303504 50.7465316,106.58105 L46.1491171,121.966387 L110.164834,121.966387 Z" id="Fill-12" fill="#D1A76F"></path>
                    <path d="M62.5898059,104.429481 L93.7481086,104.429481 L93.7481086,104.05738 C93.7481086,100.817002 91.123523,98.1905899 87.8864309,98.1905899 L68.4525164,98.1905899 C65.2143914,98.1905899 62.5898059,100.817002 62.5898059,104.05738 L62.5898059,104.429481 Z" id="Fill-14" fill="#F9DC4E"></path>
                    <path d="M78.8475691,24.8197462 L82.1104836,31.4359059 C82.2210033,31.6591664 82.4337796,31.8142084 82.6806414,31.8503849 L89.9770099,32.9108723 C90.5967467,33.0018303 90.8446414,33.764637 90.3963651,34.2028891 L85.1162072,39.3523513 C84.9375164,39.5259983 84.8569507,39.7771664 84.8982664,40.0221328 L86.1449704,47.294637 C86.2513586,47.9127378 85.6027007,48.3850992 85.0470033,48.0925866 L78.5211743,44.6589227 C78.3011678,44.543158 78.0377796,44.543158 77.8167401,44.6589227 L71.2909112,48.0925866 C70.7362467,48.3850992 70.0875888,47.9127378 70.1929441,47.294637 L71.439648,40.0221328 C71.4819967,39.7771664 71.400398,39.5259983 71.2217072,39.3523513 L65.9425822,34.2028891 C65.493273,33.764637 65.7411678,33.0018303 66.3619375,32.9108723 L73.6583059,31.8503849 C73.9041349,31.8142084 74.1179441,31.6591664 74.2274309,31.4359059 L77.4903454,24.8197462 C77.7681941,24.2574605 78.5697204,24.2574605 78.8475691,24.8197462" id="Fill-16" fill="#ECC608"></path>
                    <path d="M44.3774961,21.8652655 L44.3774961,14.3622655 L23.2857855,14.3622655 L23.2857855,33.0241563 C23.2857855,41.8708538 30.4530421,49.0430975 39.2935882,49.0430975 L44.3774961,49.0430975 L44.3774961,41.1183832 L40.6053645,41.1183832 C35.0483908,41.1183832 30.5429039,36.610795 30.5429039,31.048921 L30.5429039,21.8652655 L44.3774961,21.8652655 Z" id="Fill-18" fill="#ECC608"></path>
                    <path d="M111.960832,14.3620588 L111.960832,21.8650588 L125.795424,21.8650588 L125.795424,31.0497479 C125.795424,36.6105882 121.289937,41.1181765 115.732963,41.1181765 L111.960832,41.1181765 L111.960832,49.0428908 L117.044739,49.0428908 C125.885286,49.0428908 133.052542,41.8706471 133.052542,33.0239496 L133.052542,14.3620588 L111.960832,14.3620588 Z" id="Fill-20" fill="#ECC608"></path>
                    <path d="M89.8025539,113.197934 C89.8025539,110.641808 84.5936658,108.569413 78.1690605,108.569413 C71.7444553,108.569413 66.5355671,110.641808 66.5355671,113.197934 C66.5355671,115.75406 71.7444553,117.826455 78.1690605,117.826455 C84.5936658,117.826455 89.8025539,115.75406 89.8025539,113.197934" id="Fill-22" fill="#ECC608"></path>
                    <path d="M58.9867592,15.4680252 C58.9867592,17.1910588 57.5913184,18.5874706 55.8694829,18.5874706 C54.1476474,18.5874706 52.7522066,17.1910588 52.7522066,15.4680252 C52.7522066,13.7449916 54.1476474,12.3485798 55.8694829,12.3485798 C57.5913184,12.3485798 58.9867592,13.7449916 58.9867592,15.4680252" id="Fill-24" fill="#FAE475"></path>
                    <path d="M17.0026868,31.2876857 L11.7524829,32.6913328 C7.24079868,33.8975597 2.60723289,31.2153328 1.40287763,26.7015429 L0.000206578947,21.4476857 L5.25041053,20.0440387 C9.76106184,18.8378118 14.3946276,21.519005 15.6000158,26.0338286 L17.0026868,31.2876857 Z" id="Fill-26" fill="#F9DC4E"></path>
                    <path d="M19.1520375,42.3592361 L16.5264191,45.3856563 C14.2695441,47.9851941 10.335248,48.2622025 7.73751776,46.0047908 L4.71320197,43.3763118 L7.33985329,40.3509252 C9.59569539,37.7513874 13.5299914,37.4733454 16.1277217,39.7317908 L19.1520375,42.3592361 Z" id="Fill-28" fill="#F9DC4E"></path>
                    <path d="M23.8812493,48.5903748 L24.0723349,52.2224924 C24.2355322,55.3419378 21.8412822,58.0045261 18.722973,58.1688706 L15.0944138,58.3600891 L14.9033283,54.7279714 C14.739098,51.6074924 17.1343809,48.9449042 20.2516572,48.7815933 L23.8812493,48.5903748 Z" id="Fill-30" fill="#F9DC4E"></path>
                    <path d="M31.6228987,53.4750252 L33.6876553,56.4673361 C35.4621684,59.0389664 34.8176421,62.5625546 32.2488329,64.3372689 L29.2575697,66.4044958 L27.1928132,63.4111513 C25.4183,60.8405546 26.0628263,57.3169664 28.6326684,55.5412185 L31.6228987,53.4750252 Z" id="Fill-32" fill="#F9DC4E"></path>
                    <path d="M139.991013,31.2876857 L145.241216,32.6913328 C149.752901,33.8975597 154.386466,31.2153328 155.590822,26.7015429 L156.993493,21.4476857 L151.743289,20.0440387 C147.232638,18.8378118 142.599072,21.519005 141.393684,26.0338286 L139.991013,31.2876857 Z" id="Fill-34" fill="#F9DC4E"></path>
                    <path d="M137.841765,42.3592361 L140.467384,45.3856563 C142.724259,47.9851941 146.658555,48.2622025 149.256285,46.0047908 L152.280601,43.3763118 L149.653949,40.3509252 C147.398107,37.7513874 143.463811,37.4733454 140.866081,39.7317908 L137.841765,42.3592361 Z" id="Fill-36" fill="#F9DC4E"></path>
                    <path d="M133.11245,48.5903748 L132.921364,52.2224924 C132.758167,55.3419378 135.152417,58.0045261 138.270726,58.1688706 L141.899286,58.3600891 L142.090371,54.7279714 C142.254601,51.6074924 139.859318,48.9449042 136.742042,48.7815933 L133.11245,48.5903748 Z" id="Fill-38" fill="#F9DC4E"></path>
                    <path d="M125.370801,53.4750252 L123.306044,56.4673361 C121.531531,59.0389664 122.176057,62.5625546 124.744866,64.3372689 L127.73613,66.4044958 L129.800886,63.4111513 C131.575399,60.8405546 130.930873,57.3169664 128.361031,55.5412185 L125.370801,53.4750252 Z" id="Fill-40" fill="#F9DC4E"></path>
                </g>
            </g>
        </g>
    </g>
</svg>