<?xml version="1.0" encoding="UTF-8" standalone="no"?>
<svg width="249px" height="359px" viewBox="0 0 249 359" version="1.1" xmlns="http://www.w3.org/2000/svg" xmlns:xlink="http://www.w3.org/1999/xlink" xmlns:sketch="http://www.bohemiancoding.com/sketch/ns">
    <!-- Generator: Sketch 3.4.4 (17249) - http://www.bohemiancoding.com/sketch -->
    <title>Artboard 15</title>
    <desc>Created with Sketch.</desc>
    <defs>
        <path id="path-1" d="M0,0.085 L221.936,0.085 L221.936,267 L0,267"></path>
    </defs>
    <g id="Page-1" stroke="none" stroke-width="1" fill="none" fill-rule="evenodd" sketch:type="MSPage">
        <g id="Artboard-15" sketch:type="MSArtboardGroup">
            <g id="Page-1" sketch:type="MSLayerGroup" transform="translate(0.000000, 20.000000)">
                <g id="Group-3" transform="translate(14.000000, 24.000000)">
                    <mask id="mask-2" sketch:name="Clip 2" fill="white">
                        <use xlink:href="#path-1"></use>
                    </mask>
                    <g id="Clip-2"></g>
                    <path d="M145.1883,31.9146 C145.1883,14.3356 130.9373,0.0846 113.3583,0.0846 C95.7793,0.0846 81.5283,14.3356 81.5283,31.9146 C81.5283,49.4936 95.7793,63.7446 113.3583,63.7446 C130.9373,63.7446 145.1883,49.4936 145.1883,31.9146" id="Fill-1" opacity="0.149999991" fill="#FFFFFF" sketch:type="MSShapeGroup" mask="url(#mask-2)"></path>
                </g>
                <path d="M150.011,55.9146 C150.011,43.4036 139.869,33.2616 127.358,33.2616 C114.847,33.2616 104.705,43.4036 104.705,55.9146 C104.705,68.4256 114.847,78.5676 127.358,78.5676 C139.869,78.5676 150.011,68.4256 150.011,55.9146" id="Fill-4" fill="#A8D137" sketch:type="MSShapeGroup"></path>
                <path d="M127.3587,35.2618 C115.9697,35.2618 106.7057,44.5268 106.7057,55.9148 C106.7057,67.3028 115.9697,76.5668 127.3587,76.5668 C138.7467,76.5668 148.0107,67.3028 148.0107,55.9148 C148.0107,44.5268 138.7467,35.2618 127.3587,35.2618 M127.3587,80.5668 C113.7647,80.5668 102.7057,69.5088 102.7057,55.9148 C102.7057,42.3208 113.7647,31.2618 127.3587,31.2618 C140.9527,31.2618 152.0107,42.3208 152.0107,55.9148 C152.0107,69.5088 140.9527,80.5668 127.3587,80.5668" id="Fill-6" fill="#9AB24F" sketch:type="MSShapeGroup"></path>
                <path d="M125.3899,64.3458 C124.8779,64.3458 124.3669,64.1508 123.9759,63.7598 L117.2569,57.0408 C116.4759,56.2608 116.4759,54.9938 117.2569,54.2128 C118.0379,53.4318 119.3039,53.4318 120.0849,54.2128 L125.3899,59.5168 L135.2799,49.6278 C136.0609,48.8468 137.3269,48.8468 138.1079,49.6278 C138.8889,50.4088 138.8889,51.6758 138.1079,52.4558 L126.8039,63.7598 C126.4129,64.1508 125.9019,64.3458 125.3899,64.3458" id="Fill-8" fill="#8DB70B" sketch:type="MSShapeGroup"></path>
                <path d="M90.2517,226.6006 L90.2517,226.6006 C89.0617,226.2096 88.4137,224.9276 88.8047,223.7366 L108.1547,166.9376 C108.5457,165.7466 109.8277,165.0986 111.0187,165.4896 C112.2087,165.8806 112.8567,167.1626 112.4657,168.3536 L93.1157,225.1536 C92.7237,226.3436 91.4417,226.9916 90.2517,226.6006" id="Fill-10" fill="#8CBC2A" sketch:type="MSShapeGroup"></path>
                <path d="M86.3908,227.4087 L86.0408,227.3667 C84.8928,227.2297 84.0738,226.1887 84.2108,225.0407 L89.8278,176.9797 C89.9648,175.8327 91.0058,175.0127 92.1538,175.1497 L92.5038,175.1917 C93.6518,175.3287 94.4708,176.3697 94.3338,177.5177 L88.7168,225.5787 C88.5798,226.7267 87.5388,227.5457 86.3908,227.4087" id="Fill-12" fill="#8CBC2A" sketch:type="MSShapeGroup"></path>
                <path d="M167.4845,234.6042 C167.4845,209.5742 147.1935,189.2832 122.1635,189.2832 C97.1335,189.2832 76.8435,209.5742 76.8435,234.6042 C76.8435,259.6342 97.1335,279.9252 122.1635,279.9252 C147.1935,279.9252 167.4845,259.6342 167.4845,234.6042" id="Fill-14" fill="#F9DC4E" sketch:type="MSShapeGroup"></path>
                <path d="M122.1636,206.1162 C106.4546,206.1162 93.6756,218.8952 93.6756,234.6042 C93.6756,250.3132 106.4546,263.0922 122.1636,263.0922 C137.8726,263.0922 150.6516,250.3132 150.6516,234.6042 C150.6516,218.8952 137.8726,206.1162 122.1636,206.1162 M122.1636,265.9572 C104.8746,265.9572 90.8106,251.8932 90.8106,234.6042 C90.8106,217.3152 104.8746,203.2512 122.1636,203.2512 C139.4526,203.2512 153.5166,217.3152 153.5166,234.6042 C153.5166,251.8932 139.4526,265.9572 122.1636,265.9572" id="Fill-16" fill="#ECC608" sketch:type="MSShapeGroup"></path>
                <path d="M122.1636,198.1402 C102.0596,198.1402 85.7026,214.4982 85.7026,234.6042 C85.7026,254.7082 102.0596,271.0652 122.1636,271.0652 C142.2696,271.0652 158.6276,254.7082 158.6276,234.6042 C158.6276,214.4982 142.2696,198.1402 122.1636,198.1402 M122.1636,273.9302 C100.4796,273.9302 82.8376,256.2882 82.8376,234.6042 C82.8376,212.9172 100.4796,195.2752 122.1636,195.2752 C143.8506,195.2752 161.4926,212.9172 161.4926,234.6042 C161.4926,256.2882 143.8506,273.9302 122.1636,273.9302" id="Fill-18" fill="#ECC608" sketch:type="MSShapeGroup"></path>
                <path d="M122.1636,214.3775 C111.0096,214.3775 101.9366,223.4505 101.9366,234.6045 C101.9366,245.7585 111.0096,254.8305 122.1636,254.8305 C133.3176,254.8305 142.3906,245.7585 142.3906,234.6045 C142.3906,223.4505 133.3176,214.3775 122.1636,214.3775 M122.1636,257.6955 C109.4316,257.6955 99.0726,247.3365 99.0726,234.6045 C99.0726,221.8725 109.4316,211.5125 122.1636,211.5125 C134.8956,211.5125 145.2546,221.8725 145.2546,234.6045 C145.2546,247.3365 134.8956,257.6955 122.1636,257.6955" id="Fill-20" fill="#ECC608" sketch:type="MSShapeGroup"></path>
                <path d="M122.1636,222.748 C115.6286,222.748 110.3106,228.066 110.3106,234.604 C110.3106,241.142 115.6286,246.461 122.1636,246.461 C128.7016,246.461 134.0196,241.142 134.0196,234.604 C134.0196,228.066 128.7016,222.748 122.1636,222.748 M122.1636,249.325 C114.0476,249.325 107.4456,242.72 107.4456,234.604 C107.4456,226.488 114.0476,219.883 122.1636,219.883 C130.2796,219.883 136.8846,226.488 136.8846,234.604 C136.8846,242.72 130.2796,249.325 122.1636,249.325" id="Fill-22" fill="#ECC608" sketch:type="MSShapeGroup"></path>
                <path d="M122.1636,230.9086 C120.1266,230.9086 118.4676,232.5676 118.4676,234.6046 C118.4676,236.6406 120.1266,238.2996 122.1636,238.2996 C124.2006,238.2996 125.8596,236.6406 125.8596,234.6046 C125.8596,232.5676 124.2006,230.9086 122.1636,230.9086 M122.1636,241.1646 C118.5466,241.1646 115.6036,238.2216 115.6036,234.6046 C115.6036,230.9866 118.5466,228.0436 122.1636,228.0436 C125.7806,228.0436 128.7236,230.9866 128.7236,234.6046 C128.7236,238.2216 125.7806,241.1646 122.1636,241.1646" id="Fill-24" fill="#ECC608" sketch:type="MSShapeGroup"></path>
                <path d="M111.1349,234.6042 C111.1349,215.6652 95.7819,200.3122 76.8429,200.3122 C57.9049,200.3122 42.5519,215.6652 42.5519,234.6042 C42.5519,253.5432 57.9049,268.8962 76.8429,268.8962 C95.7819,268.8962 111.1349,253.5432 111.1349,234.6042" id="Fill-26" fill="#FDA45D" sketch:type="MSShapeGroup"></path>
                <path d="M61.7294,234.6042 C61.7294,226.1442 54.8714,219.2862 46.4114,219.2862 C37.9504,219.2862 31.0924,226.1442 31.0924,234.6042 C31.0924,243.0642 37.9504,249.9222 46.4114,249.9222 C54.8714,249.9222 61.7294,243.0642 61.7294,234.6042" id="Fill-28" fill="#FD8A35" sketch:type="MSShapeGroup"></path>
                <path d="M132.1634,291 L64.7014,291 C42.7894,291 25.0264,273.237 25.0264,251.324 L25.0264,234.604 L171.8394,234.604 L171.8394,251.324 C171.8394,273.237 154.0754,291 132.1634,291" id="Fill-30" fill="#E6E6E6" sketch:type="MSShapeGroup"></path>
                <g id="Group-34" transform="translate(25.000000, 234.000000)" fill="#DBDBDB" sketch:type="MSShapeGroup">
                    <path d="M73.4326,0.6042 L0.0266,0.6042 L0.0266,17.3242 C0.0266,39.2362 17.7896,57.0002 39.7016,57.0002 L73.4326,57.0002 L73.4326,0.6042 Z" id="Fill-32"></path>
                </g>
                <path d="M174.6351,251.0645 L22.2301,251.0645 C17.6851,251.0645 14.0001,247.3795 14.0001,242.8345 L14.0001,242.8345 C14.0001,238.2885 17.6851,234.6045 22.2301,234.6045 L174.6351,234.6045 C179.1801,234.6045 182.8651,238.2885 182.8651,242.8345 L182.8651,242.8345 C182.8651,247.3795 179.1801,251.0645 174.6351,251.0645" id="Fill-35" fill="#E6E6E6" sketch:type="MSShapeGroup"></path>
                <g id="Group-39" transform="translate(14.000000, 234.000000)" fill="#DBDBDB" sketch:type="MSShapeGroup">
                    <path d="M84.4326,17.0645 L8.2306,17.0645 C3.6846,17.0645 -0.0004,13.3795 -0.0004,8.8345 L-0.0004,8.8345 C-0.0004,4.2885 3.6846,0.6045 8.2306,0.6045 L84.4326,0.6045 L84.4326,17.0645 Z" id="Fill-37"></path>
                </g>
                <path d="M66.8222,213.2188 L56.2032,213.5998 C47.0792,213.9268 39.4182,206.7958 39.0912,197.6728 L38.7112,187.0528 L49.3302,186.6718 C58.4532,186.3448 66.1142,193.4758 66.4412,202.5998 L66.8222,213.2188 Z" id="Fill-40" fill="#8CBC2A" sketch:type="MSShapeGroup"></path>
                <path d="M91.0022,215.2942 C91.0022,218.2112 88.6372,220.5762 85.7202,220.5762 C82.8032,220.5762 80.4382,218.2112 80.4382,215.2942 C80.4382,212.3772 82.8032,210.0122 85.7202,210.0122 C88.6372,210.0122 91.0022,212.3772 91.0022,215.2942" id="Fill-42" fill="#FEBD86" sketch:type="MSShapeGroup"></path>
                <path d="M70.5213,182.6832 C70.1973,182.6832 69.8703,182.5882 69.5843,182.3882 C68.8403,181.8702 68.6583,180.8472 69.1763,180.1032 L73.1813,174.3592 C76.3533,169.8102 75.5593,163.1152 71.4113,159.4352 C66.0573,154.6862 65.0333,146.0472 69.1263,140.1772 L71.0353,137.4402 C71.5533,136.6982 72.5773,136.5142 73.3203,137.0332 C74.0633,137.5522 74.2463,138.5752 73.7283,139.3192 L71.8193,142.0562 C68.6463,146.6042 69.4413,153.2992 73.5893,156.9792 C78.9433,161.7292 79.9673,170.3672 75.8743,176.2372 L71.8693,181.9802 C71.5503,182.4382 71.0403,182.6832 70.5213,182.6832" id="Fill-44" opacity="0.05" fill="#000000" sketch:type="MSShapeGroup"></path>
                <path d="M127.5461,183.4093 C127.2301,183.4093 126.9111,183.3183 126.6301,183.1283 C125.8781,182.6213 125.6801,181.6013 126.1871,180.8503 L130.4821,174.4833 C133.9421,169.3573 133.0451,161.7893 128.4811,157.6143 C122.7661,152.3853 121.6421,142.9073 125.9741,136.4863 L128.0231,133.4523 C128.5291,132.7013 129.5501,132.5023 130.3011,133.0103 C131.0521,133.5173 131.2501,134.5373 130.7431,135.2893 L128.6951,138.3223 C125.2361,143.4493 126.1341,151.0173 130.6971,155.1923 C136.4121,160.4213 137.5371,169.8983 133.2041,176.3193 L128.9081,182.6853 C128.5911,183.1563 128.0731,183.4093 127.5461,183.4093" id="Fill-46" opacity="0.05" fill="#000000" sketch:type="MSShapeGroup"></path>
                <path d="M99.7979,164.4553 C99.5079,164.4553 99.2149,164.3783 98.9479,164.2173 C98.1729,163.7473 97.9269,162.7393 98.3949,161.9643 C98.4519,161.8703 102.4449,155.0943 98.8349,150.9763 C93.7819,145.3013 93.0879,135.5153 97.2949,129.1723 L99.3049,126.1453 C99.8059,125.3893 100.8229,125.1823 101.5799,125.6853 C102.3349,126.1863 102.5409,127.2053 102.0399,127.9613 L100.0299,130.9883 C96.5939,136.1673 97.1599,144.1593 101.2949,148.8033 C106.5109,154.7523 101.4219,163.3043 101.2029,163.6663 C100.8939,164.1743 100.3529,164.4553 99.7979,164.4553" id="Fill-48" opacity="0.05" fill="#000000" sketch:type="MSShapeGroup"></path>
                <path d="M218.464,227.61 L210.213,227.61 L210.213,283.229 L218.464,283.229 L218.464,227.61 Z" id="Fill-50" fill="#B7DCE5" sketch:type="MSShapeGroup"></path>
                <path d="M214.3391,256.0267 L214.3391,256.0267 C202.4111,256.0267 192.7421,246.3577 192.7421,234.4297 L192.7421,193.5117 C192.7421,191.1767 194.6351,189.2837 196.9701,189.2837 L231.7081,189.2837 C234.0431,189.2837 235.9361,191.1767 235.9361,193.5117 L235.9361,234.4297 C235.9361,246.3577 226.2671,256.0267 214.3391,256.0267" id="Fill-52" fill="#C7E8F2" sketch:type="MSShapeGroup"></path>
                <path d="M221.8566,283.2296 L206.8216,283.2296 C202.5306,283.2296 199.0516,286.7086 199.0516,290.9996 L199.0516,290.9996 L229.6266,290.9996 L229.6266,290.9996 C229.6266,286.7086 226.1476,283.2296 221.8566,283.2296" id="Fill-53" fill="#C7E8F2" sketch:type="MSShapeGroup"></path>
                <path d="M214.3391,246.2777 L214.3391,246.2777 C205.8961,246.2777 199.0511,239.4327 199.0511,230.9897 L199.0511,210.6807 L229.6271,210.6807 L229.6271,230.9897 C229.6271,239.4327 222.7821,246.2777 214.3391,246.2777" id="Fill-54" fill="#EF7B6C" sketch:type="MSShapeGroup"></path>
                <path d="M213.2257,232.3468 C213.2257,234.0098 211.8777,235.3588 210.2137,235.3588 C208.5507,235.3588 207.2017,234.0098 207.2017,232.3468 C207.2017,230.6838 208.5507,229.3348 210.2137,229.3348 C211.8777,229.3348 213.2257,230.6838 213.2257,232.3468" id="Fill-55" fill="#FCA49D" sketch:type="MSShapeGroup"></path>
                <rect id="Rectangle-101" sketch:type="MSShapeGroup" x="0" y="0" width="249" height="314"></rect>
            </g>
        </g>
    </g>
</svg>