<?xml version="1.0" encoding="UTF-8" standalone="no"?>
<svg width="249px" height="230px" viewBox="0 0 249 230" version="1.1" xmlns="http://www.w3.org/2000/svg" xmlns:xlink="http://www.w3.org/1999/xlink" xmlns:sketch="http://www.bohemiancoding.com/sketch/ns">
    <!-- Generator: Sketch 3.4.4 (17249) - http://www.bohemiancoding.com/sketch -->
    <title>Artboard 15 Copy 3</title>
    <desc>Created with Sketch.</desc>
    <defs>
        <path id="path-1" d="M0,0.313548387 L181.09218,0.313548387 L181.09218,135 L0,135"></path>
        <path id="path-3" d="M0,0.313548387 L181.09218,0.313548387 L181.09218,135 L0,135 L0,0.313548387 Z"></path>
        <path id="path-5" d="M0,0.313548387 L181.09218,0.313548387 L181.09218,135 L0,135 L0,0.313548387 Z"></path>
    </defs>
    <g id="Page-1" stroke="none" stroke-width="1" fill="none" fill-rule="evenodd" sketch:type="MSPage">
        <g id="Artboard-15-Copy-3" sketch:type="MSArtboardGroup">
            <g id="Page-1" sketch:type="MSLayerGroup" transform="translate(34.000000, 48.000000)">
                <path d="M149.878635,76.2924194 L133.200024,76.2924194 L133.200024,99.0921774 L149.878635,99.0921774 L149.878635,76.2924194 Z" id="Fill-1" fill="#FEBD86" sketch:type="MSShapeGroup"></path>
                <path d="M152.291497,98.0197984 L130.754467,98.0197984 L130.754467,91.0379032 L152.291497,91.0379032 L152.291497,98.0197984 Z" id="Fill-2" fill="#EF993A" sketch:type="MSShapeGroup"></path>
                <g id="Group-53">
                    <path d="M121.532189,51.1308145 C121.532189,46.5114194 117.783207,42.7673468 113.160189,42.7673468 C108.536081,42.7673468 104.787099,46.5114194 104.787099,51.1308145 C104.787099,55.7502097 108.536081,59.4942823 113.160189,59.4942823 C117.783207,59.4942823 121.532189,55.7502097 121.532189,51.1308145" id="Fill-3" fill="#FEBD86" sketch:type="MSShapeGroup"></path>
                    <path d="M178.290578,51.1308145 C178.290578,46.5114194 174.541596,42.7673468 169.918578,42.7673468 C165.294471,42.7673468 161.545489,46.5114194 161.545489,51.1308145 C161.545489,55.7502097 165.294471,59.4942823 169.918578,59.4942823 C174.541596,59.4942823 178.290578,55.7502097 178.290578,51.1308145" id="Fill-5" fill="#FEBD86" sketch:type="MSShapeGroup"></path>
                    <path d="M141.539002,85.3649637 L141.539002,85.3649637 C125.865206,85.3649637 113.16008,72.6716976 113.16008,57.0149637 L113.16008,42.1442782 C113.16008,26.4864556 125.865206,13.7931895 141.539002,13.7931895 L141.539002,13.7931895 C157.212799,13.7931895 169.917925,26.4864556 169.917925,42.1442782 L169.917925,57.0149637 C169.917925,72.6716976 157.212799,85.3649637 141.539002,85.3649637" id="Fill-7" fill="#FECCAE" sketch:type="MSShapeGroup"></path>
                    <path d="M133.671916,50.3543468 C133.028922,50.3543468 132.506898,49.8328548 132.506898,49.1905161 C132.506898,48.3249919 131.801784,47.6205968 130.934287,47.6205968 C130.06788,47.6205968 129.362766,48.3249919 129.362766,49.1905161 C129.362766,49.8328548 128.840743,50.3543468 128.197749,50.3543468 C127.554754,50.3543468 127.032731,49.8328548 127.032731,49.1905161 C127.032731,47.0424919 128.782982,45.2929355 130.934287,45.2929355 C133.086683,45.2929355 134.836934,47.0424919 134.836934,49.1905161 C134.836934,49.8328548 134.31491,50.3543468 133.671916,50.3543468" id="Fill-9" fill="#5B5B5B" sketch:type="MSShapeGroup"></path>
                    <path d="M159.037485,58.1957782 C158.666946,59.3596089 156.872012,59.827754 155.028036,59.2431169 C153.18406,58.6573911 151.988527,57.2388024 152.359066,56.0760605 C152.728515,54.9122298 154.523449,54.442996 156.368515,55.0287218 C158.212491,55.6144476 159.408024,57.0319476 159.037485,58.1957782" id="Fill-11" fill="#FEBD86" sketch:type="MSShapeGroup"></path>
                    <path d="M124.858648,58.1957782 C125.229187,59.3596089 127.024121,59.827754 128.868097,59.2431169 C130.712073,58.6573911 131.907606,57.2388024 131.537067,56.0760605 C131.167618,54.9122298 129.372684,54.442996 127.527618,55.0287218 C125.683642,55.6144476 124.488109,57.0319476 124.858648,58.1957782" id="Fill-13" fill="#FEBD86" sketch:type="MSShapeGroup"></path>
                    <path d="M141.539547,68.3312298 C138.894553,68.3312298 136.381428,67.1837298 134.645344,65.1837702 C134.36526,64.8615121 134.400134,64.370504 134.724901,64.0896169 C135.049667,63.8098185 135.538996,63.8435685 135.82017,64.1690927 C137.258733,65.8282863 139.344649,66.7798185 141.539547,66.7798185 C143.727907,66.7798185 145.808374,65.8326411 147.246937,64.1810685 C147.52811,63.8577218 148.019619,63.8207056 148.342206,64.1048589 C148.665883,64.385746 148.700757,64.876754 148.418493,65.1990121 C146.684589,67.1902621 144.176913,68.3312298 141.539547,68.3312298" id="Fill-15" fill="#D88248" sketch:type="MSShapeGroup"></path>
                    <path d="M113.671424,64.8677177 L113.671424,64.8677177 C112.151125,64.8677177 110.918538,63.6363871 110.918538,62.1176371 L110.918538,30.7780403 L117.649268,30.7780403 L117.649268,60.8939274 C117.649268,63.0887661 115.868502,64.8677177 113.671424,64.8677177" id="Fill-17" fill="#827056" sketch:type="MSShapeGroup"></path>
                    <path d="M170.530622,64.8677177 L170.530622,64.8677177 C168.333544,64.8677177 166.552777,63.0887661 166.552777,60.8939274 L166.552777,30.7780403 L173.283508,30.7780403 L173.283508,62.1176371 C173.283508,63.6363871 172.050921,64.8677177 170.530622,64.8677177" id="Fill-19" fill="#827056" sketch:type="MSShapeGroup"></path>
                    <path d="M141.539002,44.9057903 L141.539002,44.9057903 C139.827984,44.9057903 138.441733,46.290629 138.441733,47.9999032 L138.441733,58.3981694 C138.441733,60.1063548 139.827984,61.4911935 141.539002,61.4911935 L141.539002,61.4911935 C143.25002,61.4911935 144.636272,60.1063548 144.636272,58.3981694 L144.636272,47.9999032 C144.636272,46.290629 143.25002,44.9057903 141.539002,44.9057903" id="Fill-21" fill="#FEBD86" sketch:type="MSShapeGroup"></path>
                    <path d="M155.028472,50.3543468 C154.385478,50.3543468 153.863454,49.8328548 153.863454,49.1905161 C153.863454,48.3249919 153.15834,47.6205968 152.290843,47.6205968 C151.424436,47.6205968 150.719322,48.3249919 150.719322,49.1905161 C150.719322,49.8328548 150.197298,50.3543468 149.554304,50.3543468 C148.91131,50.3543468 148.389286,49.8328548 148.389286,49.1905161 C148.389286,47.0424919 150.139538,45.2929355 152.290843,45.2929355 C154.443238,45.2929355 156.19349,47.0424919 156.19349,49.1905161 C156.19349,49.8328548 155.671466,50.3543468 155.028472,50.3543468" id="Fill-23" fill="#5B5B5B" sketch:type="MSShapeGroup"></path>
                    <path d="M174.575381,135 C178.752662,135 181.849932,131.122016 180.929034,127.052419 C178.385393,115.80496 171.165333,106.335363 161.405992,100.791653 L161.405992,100.791653 L161.405992,100.866774 C155.345501,97.5527419 148.404435,95.6453226 141.008914,95.6453226 L141.008914,95.6453226 C131.361824,95.6453226 124.10362,99.3610887 121.392147,100.821048 L121.392147,100.791653 L121.392147,100.791653 C121.25701,100.868952 121.129501,100.956048 120.996543,101.034435 C120.895189,101.088871 120.788387,101.147661 120.70665,101.19121 L120.689213,101.221694 C111.285153,106.819839 104.342998,116.098911 101.863656,127.075282 C100.947117,131.136169 104.055285,135 108.222758,135 L174.575381,135 Z" id="Fill-25" fill="#FFAA45" sketch:type="MSShapeGroup"></path>
                    <g id="Group-29">
                        <mask id="mask-2" sketch:name="Clip 28" fill="white">
                            <use xlink:href="#path-1"></use>
                        </mask>
                        <g id="Clip-28"></g>
                        <path d="M142.101023,0.313112903 L142.101023,0.313112903 C124.879681,0.313112903 110.919083,14.2594839 110.919083,31.4632742 L110.919083,37.9247661 L117.621478,31.6037177 C132.072496,41.1440806 150.937286,41.693879 173.282963,37.9247661 L173.282963,31.4632742 C173.282963,14.2594839 159.322364,0.313112903 142.101023,0.313112903" id="Fill-27" fill="#827056" sketch:type="MSShapeGroup" mask="url(#mask-2)"></path>
                    </g>
                    <path d="M23.8363329,81.0232984 C24.321303,74.6902742 19.5751353,69.1628952 13.2356503,68.6784194 C6.89616527,68.1939435 1.36423713,72.9352742 0.878177246,79.2682984 C0.393207186,85.6013226 5.13937485,91.1276129 11.4788599,91.6131774 C17.8183449,92.0976532 23.3513629,87.3563226 23.8363329,81.0232984" id="Fill-30" fill="#827056" sketch:type="MSShapeGroup"></path>
                    <g id="Group-34">
                        <mask id="mask-4" sketch:name="Clip 33" fill="white">
                            <use xlink:href="#path-3"></use>
                        </mask>
                        <g id="Clip-33"></g>
                        <path d="M11.4788599,91.6128508 L-0.000217964072,90.7353508 L0.878177246,79.2679718 L12.3572551,80.1454718 L11.4788599,91.6128508 Z" id="Fill-32" fill="#827056" sketch:type="MSShapeGroup" mask="url(#mask-4)"></path>
                    </g>
                    <path d="M26.3871665,68.9922944 C24.3383042,66.8333831 21.160388,66.5198347 19.2902563,68.292254 C17.4201246,70.0635847 17.5650707,73.2502379 19.6139329,75.4091492 C21.663885,77.5680605 24.8418012,77.8816089 26.7119329,76.1091895 C28.5820647,74.3378589 28.4360287,71.1512056 26.3871665,68.9922944" id="Fill-35" fill="#E8BA52" sketch:type="MSShapeGroup"></path>
                    <mask id="mask-6" sketch:name="Clip 38" fill="white">
                        <use xlink:href="#path-5"></use>
                    </mask>
                    <g id="Clip-38"></g>
                    <path d="M56.8700958,76.2924194 L40.191485,76.2924194 L40.191485,99.0921774 L56.8700958,99.0921774 L56.8700958,76.2924194 Z" id="Fill-37" fill="#FEBD86" sketch:type="MSShapeGroup" mask="url(#mask-6)"></path>
                    <path d="M28.5241952,51.1308145 C28.5241952,46.5114194 24.7752132,42.7673468 20.1521952,42.7673468 C15.5280874,42.7673468 11.7791054,46.5114194 11.7791054,51.1308145 C11.7791054,55.7502097 15.5280874,59.4942823 20.1521952,59.4942823 C24.7752132,59.4942823 28.5241952,55.7502097 28.5241952,51.1308145" id="Fill-39" fill="#FEBD86" sketch:type="MSShapeGroup" mask="url(#mask-6)"></path>
                    <path d="M85.2825844,51.1308145 C85.2825844,46.5114194 81.5336024,42.7673468 76.9105844,42.7673468 C72.2864766,42.7673468 68.5374946,46.5114194 68.5374946,51.1308145 C68.5374946,55.7502097 72.2864766,59.4942823 76.9105844,59.4942823 C81.5336024,59.4942823 85.2825844,55.7502097 85.2825844,51.1308145" id="Fill-40" fill="#FEBD86" sketch:type="MSShapeGroup" mask="url(#mask-6)"></path>
                    <path d="M48.5310084,85.3649637 L48.5310084,85.3649637 C32.857212,85.3649637 20.1520862,72.6716976 20.1520862,57.0149637 L20.1520862,42.1442782 C20.1520862,26.4864556 32.857212,13.7931895 48.5310084,13.7931895 L48.5310084,13.7931895 C64.2048048,13.7931895 76.9099305,26.4864556 76.9099305,42.1442782 L76.9099305,57.0149637 C76.9099305,72.6716976 64.2048048,85.3649637 48.5310084,85.3649637" id="Fill-41" fill="#FECCAE" sketch:type="MSShapeGroup" mask="url(#mask-6)"></path>
                    <path d="M40.6635952,50.355 C40.0206012,50.355 39.4985772,49.8335081 39.4985772,49.1911694 C39.4985772,48.3256452 38.7934635,47.62125 37.9270563,47.62125 C37.0595593,47.62125 36.3544455,48.3256452 36.3544455,49.1911694 C36.3544455,49.8335081 35.8324216,50.355 35.1894275,50.355 L33.609188,50.355 C32.966194,50.355 32.4441701,49.8335081 32.4441701,49.1911694 C32.4441701,48.5488306 32.966194,48.0273387 33.609188,48.0273387 L34.2020503,48.0273387 C34.6990084,46.4443548 36.1811641,45.2935887 37.9270563,45.2935887 C40.0783617,45.2935887 41.8286132,47.0420565 41.8286132,49.1911694 C41.8286132,49.8335081 41.3065892,50.355 40.6635952,50.355" id="Fill-42" fill="#5B5B5B" sketch:type="MSShapeGroup" mask="url(#mask-6)"></path>
                    <path d="M66.0296,58.1957782 C65.6590611,59.3596089 63.8641269,59.827754 62.0201509,59.2431169 C60.1761749,58.6573911 58.9806419,57.2388024 59.3511808,56.0760605 C59.7206299,54.9122298 61.5155641,54.442996 63.3606299,55.0287218 C65.204606,55.6144476 66.4001389,57.0319476 66.0296,58.1957782" id="Fill-43" fill="#F8AA9C" sketch:type="MSShapeGroup" mask="url(#mask-6)"></path>
                    <path d="M31.8506539,58.1957782 C32.2211928,59.3596089 34.0161269,59.827754 35.860103,59.2431169 C37.704079,58.6573911 38.899612,57.2388024 38.5290731,56.0760605 C38.159624,54.9122298 36.3646898,54.442996 34.519624,55.0287218 C32.6756479,55.6144476 31.480115,57.0319476 31.8506539,58.1957782" id="Fill-44" fill="#F8AA9C" sketch:type="MSShapeGroup" mask="url(#mask-6)"></path>
                    <path d="M48.5312263,68.3304677 C45.8840527,68.3304677 43.3731066,67.1829677 41.6392024,65.1830081 C41.3580287,64.8585726 41.392903,64.3697419 41.7176695,64.0888548 C42.0424359,63.8090565 42.5317653,63.8428065 42.8129389,64.1683306 C44.250412,65.8275242 46.3352383,66.7790565 48.5312263,66.7790565 C50.7195856,66.7790565 52.8011425,65.831879 54.2386156,64.1813952 C54.5197892,63.8591371 55.0091186,63.822121 55.333885,64.1062742 C55.6575617,64.3860726 55.6924359,64.8770806 55.4101725,65.2004274 C53.6762683,67.1895 51.1685916,68.3304677 48.5312263,68.3304677" id="Fill-45" fill="#D88248" sketch:type="MSShapeGroup" mask="url(#mask-6)"></path>
                    <path d="M17.9106527,65.7349839 L17.9106527,65.7349839 L17.9106527,30.7776048 L24.6413832,30.7776048 L24.6413832,59.0111129 C24.6413832,62.7247016 21.6280299,65.7349839 17.9106527,65.7349839" id="Fill-46" fill="#827056" sketch:type="MSShapeGroup" mask="url(#mask-6)"></path>
                    <path d="M80.2754048,65.7349839 L80.2754048,65.7349839 C76.5580275,65.7349839 73.5446743,62.7247016 73.5446743,59.0111129 L73.5446743,30.7776048 L80.2754048,30.7776048 L80.2754048,65.7349839 Z" id="Fill-47" fill="#827056" sketch:type="MSShapeGroup" mask="url(#mask-6)"></path>
                    <path d="M48.5310084,44.9057903 L48.5310084,44.9057903 C46.8199904,44.9057903 45.4337389,46.290629 45.4337389,47.9999032 L45.4337389,58.3981694 C45.4337389,60.1063548 46.8199904,61.4911935 48.5310084,61.4911935 L48.5310084,61.4911935 C50.2420263,61.4911935 51.6282778,60.1063548 51.6282778,58.3981694 L51.6282778,47.9999032 C51.6282778,46.290629 50.2420263,44.9057903 48.5310084,44.9057903" id="Fill-48" fill="#FEBD86" sketch:type="MSShapeGroup" mask="url(#mask-6)"></path>
                    <path d="M64.0905916,50.355 L62.0199329,50.355 C61.3769389,50.355 60.854915,49.8335081 60.854915,49.1911694 C60.854915,48.3256452 60.1498012,47.62125 59.283394,47.62125 C58.415897,47.62125 57.7107832,48.3256452 57.7107832,49.1911694 C57.7107832,49.8335081 57.1887593,50.355 56.5457653,50.355 C55.9027713,50.355 55.3807473,49.8335081 55.3807473,49.1911694 C55.3807473,47.0420565 57.1309988,45.2935887 59.283394,45.2935887 C61.0292862,45.2935887 62.5114419,46.4443548 63.0073102,48.0273387 L64.0905916,48.0273387 C64.7335856,48.0273387 65.2556096,48.5488306 65.2556096,49.1911694 C65.2556096,49.8335081 64.7335856,50.355 64.0905916,50.355" id="Fill-49" fill="#5B5B5B" sketch:type="MSShapeGroup" mask="url(#mask-6)"></path>
                    <path d="M49.0931377,0.313112903 L49.0931377,0.313112903 C31.8717964,0.313112903 17.9111976,14.2594839 17.9111976,31.4632742 L17.9111976,37.9247661 L24.6135928,31.1802097 C39.0646108,40.7205726 57.9294012,41.693879 80.2750778,37.9247661 L80.2750778,31.4632742 C80.2750778,14.2594839 66.314479,0.313112903 49.0931377,0.313112903" id="Fill-50" fill="#827056" sketch:type="MSShapeGroup" mask="url(#mask-6)"></path>
                    <path d="M59.4191856,98.0197984 L37.8821557,98.0197984 L37.8821557,91.0379032 L59.4191856,91.0379032 L59.4191856,98.0197984 Z" id="Fill-51" fill="#EF993A" sketch:type="MSShapeGroup" mask="url(#mask-6)"></path>
                    <path d="M81.7030695,135 C85.8803509,135 88.9776204,131.122016 88.0567222,127.052419 C85.5130814,115.80496 78.2930216,106.335363 68.5336802,100.791653 L68.5336802,100.791653 L68.5336802,100.866774 C62.4731892,97.5527419 55.5321234,95.6453226 48.1366024,95.6453226 L48.1366024,95.6453226 C38.4895126,95.6453226 31.231309,99.3610887 28.5198359,100.821048 L28.5198359,100.791653 L28.5198359,100.791653 C28.3846982,100.868952 28.2571892,100.956048 28.1242311,101.034435 C28.0228778,101.088871 27.9160754,101.147661 27.8343389,101.19121 L27.8169018,101.221694 C18.4128419,106.819839 11.4706862,116.098911 8.99134491,127.075282 C8.07480599,131.136169 11.1829737,135 15.3504467,135 L81.7030695,135 Z" id="Fill-52" fill="#FFAA45" sketch:type="MSShapeGroup" mask="url(#mask-6)"></path>
                </g>
            </g>
        </g>
    </g>
</svg>