<?xml version="1.0" encoding="UTF-8" standalone="no"?>
<svg width="181px" height="20px" viewBox="0 0 181 20" version="1.1" xmlns="http://www.w3.org/2000/svg" xmlns:xlink="http://www.w3.org/1999/xlink" xmlns:sketch="http://www.bohemiancoding.com/sketch/ns">
    <!-- Generator: Sketch 3.4.4 (17249) - http://www.bohemiancoding.com/sketch -->
    <title>JANTAFORA</title>
    <desc>Created with Sketch.</desc>
    <defs></defs>
    <g id="Page-1" stroke="none" stroke-width="1" fill="none" fill-rule="evenodd" sketch:type="MSPage">
        <g id="Home" sketch:type="MSArtboardGroup" transform="translate(-69.000000, -418.000000)" fill="#666666">
            <path d="M81.4383737,430.504286 L81.4383737,418.596286 L77.3303737,418.596286 L77.3303737,430.322286 C77.3303737,432.428286 76.3943737,433.338286 74.8863737,433.338286 C73.6123737,433.338286 72.5983737,432.662286 71.5583737,431.518286 L69.0363737,434.326286 C70.2843737,435.808286 72.1563737,437.056286 74.9903737,437.056286 C78.8383737,437.056286 81.4383737,434.924286 81.4383737,430.504286 L81.4383737,430.504286 Z M104.27118,436.796286 L96.4711796,418.466286 L92.7791796,418.466286 L84.9791796,436.796286 L89.0611796,436.796286 L90.7251796,432.714286 L98.4211796,432.714286 L100.08518,436.796286 L104.27118,436.796286 Z M96.9911796,429.178286 L92.1551796,429.178286 L94.5731796,423.276286 L96.9911796,429.178286 Z M124.919985,436.796286 L124.919985,418.596286 L120.967985,418.596286 L120.967985,429.802286 L112.439985,418.596286 L108.747985,418.596286 L108.747985,436.796286 L112.699985,436.796286 L112.699985,425.226286 L121.513985,436.796286 L124.919985,436.796286 Z M144.736791,422.288286 L144.736791,418.596286 L129.656791,418.596286 L129.656791,422.288286 L135.194791,422.288286 L135.194791,436.796286 L139.198791,436.796286 L139.198791,422.288286 L144.736791,422.288286 Z M164.865597,436.796286 L157.065597,418.466286 L153.373597,418.466286 L145.573597,436.796286 L149.655597,436.796286 L151.319597,432.714286 L159.015597,432.714286 L160.679597,436.796286 L164.865597,436.796286 Z M157.585597,429.178286 L152.749597,429.178286 L155.167597,423.276286 L157.585597,429.178286 Z M183.200403,422.236286 L183.200403,418.596286 L169.342403,418.596286 L169.342403,436.796286 L173.346403,436.796286 L173.346403,429.750286 L182.030403,429.750286 L182.030403,426.110286 L173.346403,426.110286 L173.346403,422.236286 L183.200403,422.236286 Z M206.605209,427.696286 L206.605209,427.644286 C206.605209,422.470286 202.575209,418.284286 196.959209,418.284286 C191.343209,418.284286 187.261209,422.522286 187.261209,427.696286 L187.261209,427.748286 C187.261209,432.922286 191.291209,437.108286 196.907209,437.108286 C202.523209,437.108286 206.605209,432.870286 206.605209,427.696286 L206.605209,427.696286 Z M202.419209,427.748286 C202.419209,430.868286 200.183209,433.416286 196.959209,433.416286 C193.735209,433.416286 191.447209,430.816286 191.447209,427.696286 L191.447209,427.644286 C191.447209,424.524286 193.683209,421.976286 196.907209,421.976286 C200.131209,421.976286 202.419209,424.576286 202.419209,427.696286 L202.419209,427.748286 Z M227.566015,436.796286 L223.120015,430.296286 C225.434015,429.438286 227.020015,427.592286 227.020015,424.654286 L227.020015,424.602286 C227.020015,420.858286 224.446015,418.596286 220.156015,418.596286 L211.836015,418.596286 L211.836015,436.796286 L215.840015,436.796286 L215.840015,430.972286 L218.986015,430.972286 L222.886015,436.796286 L227.566015,436.796286 Z M222.964015,424.862286 C222.964015,426.396286 221.846015,427.436286 219.896015,427.436286 L215.840015,427.436286 L215.840015,422.210286 L219.818015,422.210286 C221.768015,422.210286 222.964015,423.094286 222.964015,424.810286 L222.964015,424.862286 Z M250.03482,436.796286 L242.23482,418.466286 L238.54282,418.466286 L230.74282,436.796286 L234.82482,436.796286 L236.48882,432.714286 L244.18482,432.714286 L245.84882,436.796286 L250.03482,436.796286 Z M242.75482,429.178286 L237.91882,429.178286 L240.33682,423.276286 L242.75482,429.178286 Z" id="JANTAFORA" sketch:type="MSShapeGroup"></path>
        </g>
    </g>
</svg>