<?xml version="1.0" encoding="UTF-8" standalone="no"?>
<svg width="142px" height="16px" viewBox="0 0 142 16" version="1.1" xmlns="http://www.w3.org/2000/svg" xmlns:xlink="http://www.w3.org/1999/xlink" xmlns:sketch="http://www.bohemiancoding.com/sketch/ns">
    <!-- Generator: Sketch 3.4.4 (17249) - http://www.bohemiancoding.com/sketch -->
    <title>Janta Fora</title>
    <desc>Created with Sketch.</desc>
    <defs></defs>
    <g id="Page-1" stroke="none" stroke-width="1" fill="none" fill-rule="evenodd" sketch:type="MSPage">
        <g id="Login" sketch:type="MSArtboardGroup" transform="translate(-89.000000, -15.000000)" fill="#FFFFFF">
            <g id="header" sketch:type="MSLayerGroup">
                <path d="M98.96,25.16 L98.96,16 L95.8,16 L95.8,25.02 C95.8,26.64 95.08,27.34 93.92,27.34 C92.94,27.34 92.16,26.82 91.36,25.94 L89.42,28.1 C90.38,29.24 91.82,30.2 94,30.2 C96.96,30.2 98.96,28.56 98.96,25.16 L98.96,25.16 Z M116.74,30 L110.74,15.9 L107.9,15.9 L101.9,30 L105.04,30 L106.32,26.86 L112.24,26.86 L113.52,30 L116.74,30 Z M111.14,24.14 L107.42,24.14 L109.28,19.6 L111.14,24.14 Z M132.84,30 L132.84,16 L129.8,16 L129.8,24.62 L123.24,16 L120.4,16 L120.4,30 L123.44,30 L123.44,21.1 L130.22,30 L132.84,30 Z M148.3,18.84 L148.3,16 L136.7,16 L136.7,18.84 L140.96,18.84 L140.96,30 L144.04,30 L144.04,18.84 L148.3,18.84 Z M164,30 L158,15.9 L155.16,15.9 L149.16,30 L152.3,30 L153.58,26.86 L159.5,26.86 L160.78,30 L164,30 Z M158.4,24.14 L154.68,24.14 L156.54,19.6 L158.4,24.14 Z M178.32,18.8 L178.32,16 L167.66,16 L167.66,30 L170.74,30 L170.74,24.58 L177.42,24.58 L177.42,21.78 L170.74,21.78 L170.74,18.8 L178.32,18.8 Z M196.54,23 L196.54,22.96 C196.54,18.98 193.44,15.76 189.12,15.76 C184.8,15.76 181.66,19.02 181.66,23 L181.66,23.04 C181.66,27.02 184.76,30.24 189.08,30.24 C193.4,30.24 196.54,26.98 196.54,23 L196.54,23 Z M193.32,23.04 C193.32,25.44 191.6,27.4 189.12,27.4 C186.64,27.4 184.88,25.4 184.88,23 L184.88,22.96 C184.88,20.56 186.6,18.6 189.08,18.6 C191.56,18.6 193.32,20.6 193.32,23 L193.32,23.04 Z M212.88,30 L209.46,25 C211.24,24.34 212.46,22.92 212.46,20.66 L212.46,20.62 C212.46,17.74 210.48,16 207.18,16 L200.78,16 L200.78,30 L203.86,30 L203.86,25.52 L206.28,25.52 L209.28,30 L212.88,30 Z M209.34,20.82 C209.34,22 208.48,22.8 206.98,22.8 L203.86,22.8 L203.86,18.78 L206.92,18.78 C208.42,18.78 209.34,19.46 209.34,20.78 L209.34,20.82 Z M230.38,30 L224.38,15.9 L221.54,15.9 L215.54,30 L218.68,30 L219.96,26.86 L225.88,26.86 L227.16,30 L230.38,30 Z M224.78,24.14 L221.06,24.14 L222.92,19.6 L224.78,24.14 Z" id="Janta-Fora" sketch:type="MSShapeGroup"></path>
            </g>
        </g>
    </g>
</svg>