<?xml version="1.0" encoding="UTF-8" standalone="no"?>
<svg width="249px" height="211px" viewBox="0 0 249 211" version="1.1" xmlns="http://www.w3.org/2000/svg" xmlns:xlink="http://www.w3.org/1999/xlink" xmlns:sketch="http://www.bohemiancoding.com/sketch/ns">
    <!-- Generator: Sketch 3.4.4 (17249) - http://www.bohemiancoding.com/sketch -->
    <title>Artboard 15 Copy 2</title>
    <desc>Created with Sketch.</desc>
    <defs>
        <path id="path-1" d="M0,0.994 L122.828,0.994 L122.828,120 L0,120"></path>
    </defs>
    <g id="Page-1" stroke="none" stroke-width="1" fill="none" fill-rule="evenodd" sketch:type="MSPage">
        <g id="Artboard-15-Copy-2" sketch:type="MSArtboardGroup">
            <g id="Page-1" sketch:type="MSLayerGroup" transform="translate(63.000000, 46.000000)">
                <path d="M92.4688,110.8708 C92.4688,105.8288 81.4708,101.7418 67.9048,101.7418 C54.3378,101.7418 43.3398,105.8288 43.3398,110.8708 C43.3398,115.9128 54.3378,119.9998 67.9048,119.9998 C81.4708,119.9998 92.4688,115.9128 92.4688,110.8708" id="Fill-1" opacity="0.05" fill="#000000" sketch:type="MSShapeGroup"></path>
                <g id="Group-5" transform="translate(1.000000, 0.000000)">
                    <mask id="mask-2" sketch:name="Clip 4" fill="white">
                        <use xlink:href="#path-1"></use>
                    </mask>
                    <g id="Clip-4"></g>
                    <path d="M34.2174,65.2312 L118.5404,65.2312 C120.9084,65.2312 122.8284,63.3112 122.8284,60.9432 L122.8284,5.2812 C122.8284,2.9132 120.9084,0.9942 118.5404,0.9942 L34.2174,0.9942 C31.8494,0.9942 29.9294,2.9132 29.9294,5.2812 L29.9294,60.9432 C29.9294,63.3112 31.8494,65.2312 34.2174,65.2312" id="Fill-3" fill="#94B228" sketch:type="MSShapeGroup" mask="url(#mask-2)"></path>
                </g>
                <path d="M112.6641,74.2615 L112.6641,60.9485 L91.1911,60.9485 L108.7411,76.0605 C110.2801,77.3855 112.6641,76.2925 112.6641,74.2615" id="Fill-6" fill="#94B228" sketch:type="MSShapeGroup"></path>
                <g id="Group-10" transform="translate(0.000000, 14.000000)" fill="#A2BC37" sketch:type="MSShapeGroup">
                    <path d="M76.4565,64.4691 L5.2875,64.4691 C2.9195,64.4691 0.9995,62.5491 0.9995,60.1811 L0.9995,4.5191 C0.9995,2.1511 2.9195,0.2321 5.2875,0.2321 L76.4565,0.2321 C78.8245,0.2321 80.7445,2.1511 80.7445,4.5191 L80.7445,60.1811 C80.7445,62.5491 78.8245,64.4691 76.4565,64.4691" id="Fill-8"></path>
                </g>
                <path d="M12.1638,87.4995 L12.1638,74.1865 L33.6368,74.1865 L16.0868,89.2985 C14.5478,90.6235 12.1638,89.5305 12.1638,87.4995" id="Fill-11" fill="#A2BC37" sketch:type="MSShapeGroup"></path>
                <path d="M33.9899,46.9349 C32.4059,41.8409 31.5149,38.9589 31.3159,38.2909 C31.1149,37.6219 30.9729,37.0959 30.8879,36.7069 C30.5319,38.0869 29.5139,41.4959 27.8329,46.9349 L33.9899,46.9349 Z M36.8979,56.7599 L35.1849,51.1359 L26.5739,51.1359 L24.8589,56.7599 L19.4629,56.7599 L27.8009,33.0399 L33.9259,33.0399 L42.2959,56.7599 L36.8979,56.7599 Z" id="Fill-13" fill="#FFFFFF" sketch:type="MSShapeGroup"></path>
                <path d="M54.9001,48.3903 L52.9931,48.4543 C51.5601,48.4983 50.4931,48.7553 49.7941,49.2313 C49.0931,49.7043 48.7431,50.4263 48.7431,51.3953 C48.7431,52.7843 49.5401,53.4793 51.1351,53.4793 C52.2761,53.4793 53.1891,53.1513 53.8731,52.4943 C54.5581,51.8373 54.9001,50.9653 54.9001,49.8773 L54.9001,48.3903 Z M56.3541,56.7603 L55.4001,54.3043 L55.2721,54.3043 C54.4421,55.3493 53.5871,56.0733 52.7111,56.4783 C51.8321,56.8813 50.6881,57.0833 49.2761,57.0833 C47.5421,57.0833 46.1761,56.5873 45.1801,55.5963 C44.1841,54.6053 43.6851,53.1943 43.6851,51.3633 C43.6851,49.4453 44.3561,48.0323 45.6971,47.1213 C47.0381,46.2123 49.0611,45.7073 51.7651,45.6113 L54.9001,45.5143 L54.9001,44.7223 C54.9001,42.8903 53.9621,41.9743 52.0881,41.9743 C50.6441,41.9743 48.9471,42.4123 46.9971,43.2843 L45.3661,39.9543 C47.4441,38.8673 49.7501,38.3233 52.2831,38.3233 C54.7061,38.3233 56.5641,38.8503 57.8561,39.9063 C59.1501,40.9633 59.7961,42.5673 59.7961,44.7223 L59.7961,56.7603 L56.3541,56.7603 Z" id="Fill-15" fill="#FFFFFF" sketch:type="MSShapeGroup"></path>
            </g>
        </g>
    </g>
</svg>